<svg width="32" height="32" viewBox="0 0 32 32" fill="none" xmlns="http://www.w3.org/2000/svg">
<path d="M12.3282 14.1428H7.80501C7.00001 14.1428 6.34668 13.4894 6.34668 12.6844V8.16244C6.34668 7.35743 7.00001 6.7041 7.80501 6.7041H12.3282C13.1332 6.7041 13.7865 7.35743 13.7865 8.16244V12.6856C13.7865 13.4906 13.1332 14.1428 12.3282 14.1428Z" stroke="#99B1E6" stroke-width="1.75" stroke-miterlimit="10" stroke-linecap="round" stroke-linejoin="round"/>
<path d="M24.1475 14.1428H19.6243C18.8193 14.1428 18.166 13.4894 18.166 12.6844V8.16244C18.166 7.35743 18.8193 6.7041 19.6243 6.7041H24.1475C24.9525 6.7041 25.6059 7.35743 25.6059 8.16244V12.6856C25.6059 13.4906 24.9537 14.1428 24.1475 14.1428Z" stroke="#99B1E6" stroke-width="1.75" stroke-miterlimit="10" stroke-linecap="round" stroke-linejoin="round"/>
<path d="M6.34668 24.503V19.9798C6.34668 19.1748 7.00001 18.5215 7.80501 18.5215H12.3282C13.1332 18.5215 13.7865 19.1748 13.7865 19.9798V24.503C13.7865 25.308 13.1332 25.9613 12.3282 25.9613H7.80501C7.00001 25.9613 6.34668 25.3092 6.34668 24.503Z" stroke="#99B1E6" stroke-width="1.75" stroke-miterlimit="10" stroke-linecap="round" stroke-linejoin="round"/>
<path d="M17.6565 21.2108L20.8543 18.0129C21.4237 17.4436 22.3477 17.4436 22.917 18.0129L26.1148 21.2108C26.6842 21.7801 26.6842 22.7041 26.1148 23.2734L22.917 26.4713C22.3477 27.0406 21.4237 27.0406 20.8543 26.4713L17.6565 23.2734C17.0872 22.7041 17.0872 21.7801 17.6565 21.2108Z" stroke="#99B1E6" stroke-width="1.75" stroke-miterlimit="10" stroke-linecap="round" stroke-linejoin="round"/>
</svg>
