<svg width="32" height="32" viewBox="0 0 32 32" fill="none" xmlns="http://www.w3.org/2000/svg">
<path d="M21.8412 26.4939C23.2156 26.4939 24.3288 25.3806 24.3288 24.0062C24.3288 22.6318 23.2156 21.5186 21.8412 21.5186C20.4667 21.5186 19.3535 22.6318 19.3535 24.0062C19.3535 25.3806 20.4667 26.4939 21.8412 26.4939Z" stroke="#99B1E6" stroke-width="1.75" stroke-miterlimit="10" stroke-linecap="round" stroke-linejoin="round"/>
<path d="M11.975 26.4939C13.3494 26.4939 14.4626 25.3806 14.4626 24.0062C14.4626 22.6318 13.3494 21.5186 11.975 21.5186C10.6005 21.5186 9.4873 22.6318 9.4873 24.0062C9.4873 25.3806 10.6005 26.4939 11.975 26.4939Z" stroke="#99B1E6" stroke-width="1.75" stroke-miterlimit="10" stroke-linecap="round" stroke-linejoin="round"/>
<path d="M3.96484 9.70672L15.4283 12.7786C16.7125 13.1231 17.9738 12.1543 17.9738 10.8256V4.89551H19.9585C22.0654 4.89551 23.6547 5.43206 24.7176 6.49373C25.7806 7.55668 26.3159 9.146 26.3159 11.2528V11.4524C26.3159 13.5592 25.7793 15.1486 24.7176 16.2115C23.6547 17.2744 22.0654 17.8097 19.9585 17.8097H13.2885C11.1817 17.8097 9.59233 17.2732 8.52939 16.2115C7.46645 15.1498 6.93116 13.5592 6.93116 11.4524V10.5014" stroke="#99B1E6" stroke-width="1.75" stroke-linecap="round" stroke-linejoin="round"/>
</svg>
