<svg width="176" height="196" viewBox="0 0 176 196" fill="none" xmlns="http://www.w3.org/2000/svg">
<g clip-path="url(#clip0_793_393)">
<rect width="176" height="196" rx="12" fill="#EDF2FE"/>
<g filter="url(#filter0_f_793_393)">
<ellipse cx="130" cy="41.3876" rx="96" ry="91.3876" fill="#DDEBFF"/>
</g>
<path d="M81.4389 24.5203C74.5389 28.5203 73.0389 37.2203 73.0389 37.2203L71.2389 37.8203C71.2389 37.8203 65.8389 40.5203 67.4389 46.8203C69.0389 53.1203 73.1389 55.7203 79.8389 56.7203C80.2389 61.7203 85.4389 69.3203 88.4389 70.9203C89.7389 75.8203 90.0389 78.2203 89.9389 78.8203C89.8389 79.4203 86.3389 87.0203 84.0389 88.6203C82.7389 88.0203 75.8389 90.8203 76.1389 94.8203C76.4389 98.8203 80.1389 99.7203 84.2389 99.5203C88.3389 99.3203 90.3389 97.1203 90.6389 96.7203C90.9389 96.3203 91.0389 93.9203 91.0389 93.9203C91.0389 93.9203 97.6389 88.8203 99.0389 86.7203C100.439 84.6203 101.639 77.9203 101.639 77.9203L107.039 78.8203C107.039 78.8203 108.939 81.9203 108.339 83.6203C107.739 85.3203 103.439 94.5203 102.339 94.5203C101.239 94.6203 94.3389 95.7203 94.3389 102.22C96.6389 106.72 101.039 107.02 107.339 105.72C109.739 105.12 110.739 100.62 110.739 100.62L110.639 99.3203C110.639 99.3203 117.139 92.9203 117.539 92.2203C120.939 93.2203 126.639 90.6203 126.639 90.6203C126.639 90.6203 130.639 87.5203 132.639 84.3203C134.739 80.9203 137.239 71.3203 137.239 71.3203L139.939 71.7203C139.939 71.7203 140.539 77.1203 143.239 78.8203C142.439 81.6203 141.339 85.4203 141.139 85.9203C140.939 86.4203 139.339 88.5203 138.839 89.0203C138.339 89.4203 134.539 89.4203 134.539 89.4203C134.539 89.4203 129.539 92.8203 129.539 94.4203C129.539 97.3203 130.939 98.4203 132.339 98.7203C133.739 99.0203 137.639 100.22 140.639 99.7203C143.639 99.2203 149.639 96.3203 151.539 92.3203C153.439 88.2203 153.139 80.1203 151.339 76.7203C154.239 74.1203 159.839 64.3203 151.539 56.6203C150.839 53.3203 149.239 51.0203 149.239 51.0203C149.239 51.0203 161.639 35.7203 156.239 23.8203C155.139 24.1203 155.139 24.7203 154.639 25.1203C154.139 25.5203 151.839 37.5203 140.439 43.9203C132.839 39.5203 122.439 44.8203 122.439 44.8203C122.439 44.8203 116.839 44.1203 115.139 41.6203C113.239 35.8203 106.639 31.4203 106.639 31.4203C106.639 31.4203 101.639 16.6203 81.4389 24.5203Z" fill="white"/>
<path d="M82.4384 34.9205C82.7384 35.0205 83.1384 35.2205 83.5384 35.4205C83.8384 35.5205 84.0384 35.9205 83.8384 36.2205C83.7384 36.4205 83.5384 36.6205 83.2384 36.6205C83.1384 36.6205 83.0384 36.6205 82.9384 36.5205C81.7384 35.9205 80.8384 35.6205 79.7384 35.4205C79.4384 35.3205 79.1384 35.0205 79.2384 34.7205C79.3384 34.4205 79.6384 34.1205 79.9384 34.2205C80.3384 34.3205 80.7384 34.4205 81.1384 34.5205C81.4384 33.8205 83.4384 29.9205 83.8384 29.4205L82.3384 30.0205C82.0384 30.1205 81.6384 30.0205 81.4384 29.7205C81.2384 29.4205 81.4384 29.0205 81.7384 28.8205L85.2384 27.3205C85.5384 27.2205 85.8384 27.3205 86.0384 27.5205C86.2384 27.7205 86.2384 28.0205 86.0384 28.3205C85.2384 29.5205 82.6384 34.3205 82.4384 34.9205Z" fill="url(#paint0_linear_793_393)"/>
<path d="M76.4382 33.8206C76.0382 33.7206 75.3382 33.6206 74.7382 33.7206C74.3382 33.7206 73.7382 35.0206 73.9382 35.0206C74.6382 34.9206 75.7382 34.9206 76.1382 35.0206C76.2382 35.0206 76.2382 35.0206 76.3382 35.0206C76.6382 35.0206 76.8382 34.8206 76.9382 34.5206C76.9382 34.3206 76.7382 33.9206 76.4382 33.8206Z" fill="url(#paint1_linear_793_393)"/>
<path d="M89.2385 37.5203L86.6385 36.6203C86.3385 36.5203 85.9385 36.7203 85.8385 37.0203C85.7385 37.3203 85.9385 37.7203 86.2385 37.8203L88.8385 38.7203C88.9385 38.7203 88.9385 38.7203 89.0385 38.7203C89.3385 38.7203 89.5385 38.5203 89.6385 38.3203C89.8385 38.0203 89.6385 37.6203 89.2385 37.5203Z" fill="url(#paint2_linear_793_393)"/>
<path d="M80.7379 28.1203C80.4379 27.9203 80.0379 27.9203 79.8379 28.2203C78.6379 29.7203 77.7379 31.2203 76.9379 33.1203C76.8379 33.4203 76.9379 33.8203 77.2379 33.9203C77.3379 33.9203 77.3379 33.9203 77.4379 33.9203C77.7379 33.9203 77.9379 33.8203 78.0379 33.5203C78.8379 31.7203 79.6379 30.3203 80.8379 28.9203C81.0379 28.7203 81.0379 28.4203 80.7379 28.1203Z" fill="url(#paint3_linear_793_393)"/>
<path d="M93.7383 30.3203C93.4383 30.1203 93.0383 30.3203 92.8383 30.6203L89.8383 37.1203C89.6383 37.4203 89.8383 37.8203 90.1383 38.0203C90.2383 38.0203 90.3383 38.1203 90.4383 38.1203C90.6383 38.1203 90.9383 38.0203 91.0383 37.7203L94.0383 31.2203C94.2383 30.8203 94.1383 30.4203 93.7383 30.3203Z" fill="url(#paint4_linear_793_393)"/>
<path d="M90.5379 29.3205C91.3379 29.3205 92.1379 29.6205 92.7379 29.9205C92.8379 30.0205 92.9379 30.0205 93.0379 30.0205C93.2379 30.0205 93.5379 29.9205 93.6379 29.7205C93.8379 29.4205 93.7379 29.0205 93.3379 28.8205C92.4379 28.3205 91.4379 28.0205 90.5379 28.0205C90.1379 28.0205 89.8379 28.3205 89.8379 28.7205C89.8379 29.1205 90.1379 29.3205 90.5379 29.3205Z" fill="url(#paint5_linear_793_393)"/>
<path d="M86.0377 36.2203C86.1377 36.2203 86.2377 36.3203 86.3377 36.3203C86.5377 36.3203 86.8377 36.2203 86.9377 35.9203L89.8377 30.2203C90.0377 29.9203 89.8377 29.5203 89.5377 29.3203C89.2377 29.1203 88.8377 29.3203 88.6377 29.6203L85.7377 35.3203C85.6377 35.7203 85.7377 36.1203 86.0377 36.2203Z" fill="url(#paint6_linear_793_393)"/>
<path d="M136.939 71.3203C136.139 75.6203 133.639 83.8203 129.639 88.0203C127.539 90.2203 124.439 92.2203 119.239 92.4203H117.139" stroke="black" stroke-miterlimit="1.5" stroke-linecap="round" stroke-linejoin="round"/>
<path d="M115.739 63.4214C112.439 62.0214 108.739 64.5214 107.639 68.5214" stroke="black" stroke-miterlimit="1.5" stroke-linecap="round" stroke-linejoin="round"/>
<path d="M73.6387 49.4199C73.6387 49.4199 73.8387 54.0199 77.0387 56.4199" stroke="black" stroke-miterlimit="1.5" stroke-linecap="round" stroke-linejoin="round"/>
<path d="M74.8381 41.4199C76.9381 41.4199 79.4381 42.4199 79.1381 43.4199C78.7381 44.8199 75.7381 46.4199 74.3381 46.2199C73.4381 46.1199 71.4381 44.7199 71.0381 43.6199" stroke="black" stroke-width="1.5" stroke-miterlimit="1.5" stroke-linecap="round" stroke-linejoin="round"/>
<path d="M80.3379 25.5206C80.3379 25.5206 81.4379 25.1206 88.0379 25.6206C95.4379 26.3206 100.038 29.7206 96.6379 38.4206" stroke="black" stroke-miterlimit="1.5" stroke-linecap="round" stroke-linejoin="round"/>
<path d="M71.7383 38.0205C72.8383 37.4205 73.7383 37.3205 75.0383 37.1205C77.0383 36.8205 79.1383 37.4205 80.8383 38.4205C82.2383 39.2205 83.4383 40.2205 84.9383 40.9205C86.9383 41.8205 89.1383 41.8205 91.2383 41.6205" stroke="black" stroke-miterlimit="1.5" stroke-linecap="round" stroke-linejoin="round"/>
<path d="M143.939 46.0215C146.039 47.4215 147.939 49.3215 149.339 51.5215C151.239 54.4215 151.139 56.6215 151.139 56.6215C151.139 56.6215 151.539 56.8215 151.639 56.9215C156.139 59.0215 157.039 69.8215 151.239 76.7215C153.039 78.9215 153.139 83.5215 151.939 89.1215C150.639 94.8215 146.739 97.8215 142.439 99.0215C139.139 99.9215 135.039 99.9215 131.439 98.3215C129.239 97.3215 128.239 95.3215 130.539 92.2215C131.739 90.6215 133.039 89.4215 135.839 89.4215C137.039 89.3215 141.539 89.4215 142.939 78.9215C142.939 78.7215 143.039 78.6215 143.039 78.4215" stroke="black" stroke-width="1.5" stroke-miterlimit="1.5" stroke-linecap="round" stroke-linejoin="round"/>
<path d="M147.439 79.5203C142.939 80.3203 139.939 76.1203 139.539 70.9203C139.239 67.0203 141.439 60.7203 145.039 57.8203" stroke="black" stroke-width="1.5" stroke-miterlimit="1.5" stroke-linecap="round" stroke-linejoin="round"/>
<path d="M99.9381 49.4201C97.2381 51.9201 87.3381 58.9201 76.4381 56.2201C71.9381 55.1201 67.9381 51.8201 67.1381 47.0201C66.7381 45.0201 67.2381 42.9201 68.2381 41.2201C69.0381 39.9201 70.4381 38.1201 73.0381 37.2201C73.8381 34.4201 74.8381 31.0201 77.7381 27.8201C80.2381 25.0201 83.5381 23.0201 87.2381 22.3201C90.1381 21.8201 93.1381 21.9201 95.9381 22.5201C98.7381 23.1201 101.438 24.3201 103.438 26.3201C105.038 27.8201 106.138 29.6201 106.738 31.7201H106.938C107.438 31.9201 108.038 32.2201 108.638 32.7201C112.038 35.2201 118.538 44.4201 113.738 50.4201C109.338 55.8201 101.538 52.2201 103.838 47.3201C105.238 44.3201 105.438 43.1201 103.238 40.1201C101.038 37.2201 101.638 35.0201 101.638 35.0201" stroke="black" stroke-width="1.5" stroke-miterlimit="1.5" stroke-linecap="round" stroke-linejoin="round"/>
<path d="M125.038 78.0203C127.538 77.0203 131.738 74.9203 135.238 70.3203C135.238 70.3203 137.438 71.4203 139.238 71.6203" stroke="black" stroke-width="1.5" stroke-miterlimit="1.5" stroke-linecap="round" stroke-linejoin="round"/>
<path d="M107.938 60.8215C104.738 63.3215 103.338 68.3215 104.638 72.7215C106.838 79.7215 109.338 81.6215 107.438 85.6215C105.538 89.6215 103.138 93.2215 101.838 94.4215L101.638 94.5215C99.6378 94.6215 97.8378 95.4215 96.5378 96.7215C94.1378 99.1215 93.6378 102.021 94.9378 103.721C96.8378 106.121 105.038 107.421 108.538 104.821C110.038 103.721 110.738 101.721 110.438 100.021C110.438 99.8215 110.438 99.5215 110.538 99.3215C110.638 99.1215 110.838 98.9215 111.138 98.5215C113.838 96.0215 119.338 91.2215 120.838 83.5215C122.238 75.1215 122.038 61.5215 115.338 59.5215" stroke="black" stroke-width="1.5" stroke-miterlimit="1.5" stroke-linecap="round" stroke-linejoin="round"/>
<path d="M88.1379 71.0215C89.8379 75.6215 90.8379 78.1215 89.0379 81.3215C87.3379 84.5215 85.5379 87.0215 84.2379 88.5215L84.0379 88.7215C81.6379 88.7215 79.4379 89.8215 78.1379 91.0215C75.9379 93.1215 75.6379 95.8215 76.3379 97.0215C77.9379 99.8215 85.1379 100.921 88.7379 98.5215C90.3379 97.5215 90.9379 96.2215 90.8379 95.0215C90.8379 94.0215 90.8379 93.9215 91.5379 93.4215C94.4379 91.1215 101.138 87.0215 101.238 79.9215V78.0215" stroke="black" stroke-width="1.5" stroke-miterlimit="1.5" stroke-linecap="round" stroke-linejoin="round"/>
<path d="M86.3385 89.5199C84.5385 88.8199 83.5385 88.9199 82.4385 89.0199" stroke="black" stroke-miterlimit="1.5" stroke-linecap="round" stroke-linejoin="round"/>
<path d="M79.7383 56.8203C80.5383 61.0203 82.6383 66.2203 88.4383 71.3203C93.3383 75.6203 100.838 78.3203 107.038 78.8203" stroke="black" stroke-width="1.5" stroke-miterlimit="1.5" stroke-linecap="round" stroke-linejoin="round"/>
<path d="M115.139 41.8202C115.139 41.8202 117.039 43.7202 122.439 44.9202C122.439 44.9202 126.439 42.5202 131.139 42.2202C134.039 42.0202 137.439 42.7202 140.639 44.2202H140.739C140.739 44.2202 145.439 41.4202 148.339 37.9202C153.439 31.8202 153.639 24.2202 155.839 24.1202C157.739 24.0202 159.239 31.0202 155.839 39.7202C153.539 45.4202 149.139 50.6202 149.139 50.6202" stroke="black" stroke-width="1.5" stroke-miterlimit="1.5" stroke-linecap="round" stroke-linejoin="round"/>
<path d="M150.638 60.5212C148.438 59.9212 145.238 61.8212 143.938 66.7212" stroke="black" stroke-miterlimit="1.5" stroke-linecap="round" stroke-linejoin="round"/>
<path d="M101.338 94.8207C101.338 94.8207 103.538 94.7207 104.638 95.2207" stroke="black" stroke-miterlimit="1.5" stroke-linecap="round" stroke-linejoin="round"/>
<path d="M141.338 96.0207C141.338 96.0207 146.738 94.9207 148.438 89.2207" stroke="black" stroke-miterlimit="1.5" stroke-linecap="round" stroke-linejoin="round"/>
<path d="M135.938 89.6211C135.938 89.6211 138.538 89.7211 139.838 90.1211" stroke="black" stroke-miterlimit="1.5" stroke-linecap="round" stroke-linejoin="round"/>
<path d="M121.938 45.0215C121.938 45.0215 124.238 45.7215 126.638 45.7215" stroke="black" stroke-miterlimit="1.5" stroke-linecap="round" stroke-linejoin="round"/>
<path d="M108.538 84.021C109.638 85.721 112.138 87.121 113.838 85.521C114.638 84.721 114.938 83.621 115.738 82.721C117.138 81.121 120.138 81.021 120.638 83.421" stroke="black" stroke-miterlimit="1.5" stroke-linecap="round" stroke-linejoin="round"/>
</g>
<defs>
<filter id="filter0_f_793_393" x="-66" y="-150" width="392" height="382.775" filterUnits="userSpaceOnUse" color-interpolation-filters="sRGB">
<feFlood flood-opacity="0" result="BackgroundImageFix"/>
<feBlend mode="normal" in="SourceGraphic" in2="BackgroundImageFix" result="shape"/>
<feGaussianBlur stdDeviation="50" result="effect1_foregroundBlur_793_393"/>
</filter>
<linearGradient id="paint0_linear_793_393" x1="73.1775" y1="34.8031" x2="94.5892" y2="29.3913" gradientUnits="userSpaceOnUse">
<stop stop-color="#53A7FC" stop-opacity="0.2"/>
<stop offset="1" stop-color="#53A7FC"/>
</linearGradient>
<linearGradient id="paint1_linear_793_393" x1="73.2201" y1="34.9725" x2="94.6318" y2="29.5607" gradientUnits="userSpaceOnUse">
<stop stop-color="#53A7FC" stop-opacity="0.2"/>
<stop offset="1" stop-color="#53A7FC"/>
</linearGradient>
<linearGradient id="paint2_linear_793_393" x1="74.7237" y1="40.92" x2="96.1354" y2="35.5083" gradientUnits="userSpaceOnUse">
<stop stop-color="#53A7FC" stop-opacity="0.2"/>
<stop offset="1" stop-color="#53A7FC"/>
</linearGradient>
<linearGradient id="paint3_linear_793_393" x1="72.5527" y1="32.2959" x2="94.2142" y2="27.9897" gradientUnits="userSpaceOnUse">
<stop stop-color="#53A7FC" stop-opacity="0.2"/>
<stop offset="1" stop-color="#53A7FC"/>
</linearGradient>
<linearGradient id="paint4_linear_793_393" x1="74.1541" y1="38.6675" x2="95.5659" y2="33.2557" gradientUnits="userSpaceOnUse">
<stop stop-color="#53A7FC" stop-opacity="0.2"/>
<stop offset="1" stop-color="#53A7FC"/>
</linearGradient>
<linearGradient id="paint5_linear_793_393" x1="72.9062" y1="33.7317" x2="94.3179" y2="28.3199" gradientUnits="userSpaceOnUse">
<stop stop-color="#53A7FC" stop-opacity="0.2"/>
<stop offset="1" stop-color="#53A7FC"/>
</linearGradient>
<linearGradient id="paint6_linear_793_393" x1="73.5782" y1="36.391" x2="94.9899" y2="30.9793" gradientUnits="userSpaceOnUse">
<stop stop-color="#53A7FC" stop-opacity="0.2"/>
<stop offset="1" stop-color="#53A7FC"/>
</linearGradient>
<clipPath id="clip0_793_393">
<rect width="176" height="196" rx="12" fill="white"/>
</clipPath>
</defs>
</svg>
