<svg width="176" height="196" viewBox="0 0 176 196" fill="none" xmlns="http://www.w3.org/2000/svg">
<g clip-path="url(#clip0_774_10482)">
<rect width="176" height="196" rx="12" fill="#EDF2FE"/>
<g filter="url(#filter0_f_774_10482)">
<ellipse cx="130" cy="41.3876" rx="96" ry="91.3876" fill="#FFF1E7"/>
</g>
<g clip-path="url(#clip1_774_10482)">
<path d="M95.5498 34.29V44.799L154.591 16H104.663L95.5498 34.29Z" fill="url(#paint0_linear_774_10482)"/>
<path d="M95.5498 93.71V83.201L154.591 112H104.663L95.5498 93.71Z" fill="url(#paint1_linear_774_10482)"/>
<path d="M95.5498 44.786V83.202L154.591 112.001V16L95.5498 44.786Z" fill="url(#paint2_linear_774_10482)"/>
<path d="M116.35 34.785H95.5498V93.201H116.35V34.785Z" fill="#FFFDF4"/>
<path d="M135.066 48.469V79.516" stroke="black" stroke-width="0.7" stroke-linecap="round" stroke-linejoin="round"/>
<path d="M129.938 55.638V72.349" stroke="black" stroke-width="0.7" stroke-linecap="round" stroke-linejoin="round"/>
<path d="M118.815 86.546C120.807 85.784 123.647 81.504 122.205 76.546" stroke="black" stroke-width="0.47" stroke-linecap="round" stroke-linejoin="round"/>
<path d="M118.815 86.546C120.807 85.784 123.647 81.504 122.205 76.546" stroke="black" stroke-width="0.7" stroke-linecap="round" stroke-linejoin="round"/>
<path d="M116.262 34.816L138.088 34.784C139.889 34.784 140.767 35.859 140.679 37.79V90.144C140.768 92.108 139.889 93.201 138.088 93.201L116.263 93.169" stroke="black" stroke-width="0.9" stroke-linecap="round" stroke-linejoin="round"/>
<path d="M113.066 102.596L96.2468 93.552C95.8168 93.321 95.5498 92.873 95.5498 92.386V35.481C95.5498 35.058 95.7518 34.66 96.0928 34.411L113.066 22.047C114.792 20.789 116.262 21.105 116.262 22.815V101.218C116.262 102.929 114.792 103.525 113.066 102.597V102.596Z" fill="white" stroke="black" stroke-width="1.3" stroke-linecap="round" stroke-linejoin="round"/>
<path d="M98.106 39.462L111.533 31.147" stroke="black" stroke-width="0.9" stroke-linecap="round" stroke-linejoin="round"/>
<path d="M99.937 43.122L108.789 38.481" stroke="black" stroke-width="0.9" stroke-linecap="round" stroke-linejoin="round"/>
<path d="M111.533 91.269L98.106 86.321" stroke="black" stroke-width="0.9" stroke-linecap="round" stroke-linejoin="round"/>
<path d="M109.762 55.0881C110.562 52.6601 110.546 50.9101 110.368 49.8241C110.268 49.2231 109.948 49.1691 109.655 49.7031L105.661 56.9951C105.199 57.8391 104.586 57.1621 104.586 55.8321V52.6731" stroke="black" stroke-width="0.7" stroke-linecap="round" stroke-linejoin="round"/>
<path d="M109.46 59.537C111.552 55.288 110.399 53.595 110.104 53.903" stroke="black" stroke-width="0.7" stroke-linecap="round" stroke-linejoin="round"/>
<path d="M105.788 69.3138L104.99 65.1158C106.49 67.3278 108.875 65.1768 109.071 62.0478C110.135 60.7148 109.978 59.2298 109.898 58.7798" stroke="black" stroke-width="0.7" stroke-linecap="round" stroke-linejoin="round"/>
<path d="M102.353 54.1832V53.4202C102.353 51.2322 103.356 49.5392 104.034 51.0072C104.729 49.0602 105.829 50.1132 105.829 52.4502V53.2652L105.426 53.3722" stroke="black" stroke-width="0.7" stroke-linecap="round" stroke-linejoin="round"/>
<path d="M105.535 74.1941C104.293 75.6931 102.843 74.8801 101.884 72.0021L103.111 65.2011C101.788 67.3471 99.9469 65.5481 99.8079 62.9381C98.9489 61.8351 99.2609 60.2691 99.2609 60.2691C98.2929 57.7951 98.9269 56.3391 99.1059 56.4751C98.8269 55.2241 98.8378 54.1461 98.9248 53.3621C98.9898 52.7641 99.2959 52.6921 99.6239 53.1951L102.501 57.6111C102.919 58.2511 103.493 57.3751 103.493 56.0721V52.9791" stroke="black" stroke-width="0.7" stroke-linecap="round" stroke-linejoin="round"/>
<path d="M119.115 75.442C119.991 76.53 120.515 77.913 120.515 79.418C120.515 80.268 120.348 81.078 120.045 81.819" stroke="black" stroke-width="0.7" stroke-linecap="round" stroke-linejoin="round"/>
<path d="M109.824 66.606L109.862 66.49C110.037 65.964 110.537 65.615 111.092 65.632L113.526 65.708C113.696 65.708 113.814 66.009 113.801 66.376C113.801 66.73 113.657 67.019 113.487 67.019L111.529 66.962C111.353 66.956 111.194 67.07 111.14 67.237L109.186 73.337L111.024 73.256C111.194 73.243 111.338 73.531 111.365 73.899C111.378 74.253 111.26 74.554 111.089 74.567L108.745 74.676C107.958 74.712 107.381 73.949 107.63 73.203L109.376 67.955" stroke="black" stroke-width="0.7" stroke-linecap="round" stroke-linejoin="round"/>
</g>
</g>
<defs>
<filter id="filter0_f_774_10482" x="-66" y="-150" width="392" height="382.775" filterUnits="userSpaceOnUse" color-interpolation-filters="sRGB">
<feFlood flood-opacity="0" result="BackgroundImageFix"/>
<feBlend mode="normal" in="SourceGraphic" in2="BackgroundImageFix" result="shape"/>
<feGaussianBlur stdDeviation="50" result="effect1_foregroundBlur_774_10482"/>
</filter>
<linearGradient id="paint0_linear_774_10482" x1="125.07" y1="44.5" x2="125.07" y2="17.641" gradientUnits="userSpaceOnUse">
<stop stop-color="#FCCC54"/>
<stop offset="0.1" stop-color="#FCC44C" stop-opacity="0.81"/>
<stop offset="0.23" stop-color="#FDBC45" stop-opacity="0.59"/>
<stop offset="0.37" stop-color="#FDB53E" stop-opacity="0.41"/>
<stop offset="0.5" stop-color="#FEB038" stop-opacity="0.26"/>
<stop offset="0.63" stop-color="#FEAB34" stop-opacity="0.15"/>
<stop offset="0.75" stop-color="#FEA831" stop-opacity="0.07"/>
<stop offset="0.88" stop-color="#FEA62F" stop-opacity="0.02"/>
<stop offset="1" stop-color="#FFA62F" stop-opacity="0"/>
</linearGradient>
<linearGradient id="paint1_linear_774_10482" x1="125.07" y1="111.701" x2="125.07" y2="84.842" gradientUnits="userSpaceOnUse">
<stop stop-color="#FFA62F" stop-opacity="0"/>
<stop offset="0.12" stop-color="#FEA62F" stop-opacity="0.02"/>
<stop offset="0.25" stop-color="#FEA831" stop-opacity="0.07"/>
<stop offset="0.37" stop-color="#FEAB34" stop-opacity="0.15"/>
<stop offset="0.5" stop-color="#FEB038" stop-opacity="0.26"/>
<stop offset="0.63" stop-color="#FDB53E" stop-opacity="0.41"/>
<stop offset="0.77" stop-color="#FDBC45" stop-opacity="0.59"/>
<stop offset="0.9" stop-color="#FCC44C" stop-opacity="0.81"/>
<stop offset="1" stop-color="#FCCC54"/>
</linearGradient>
<linearGradient id="paint2_linear_774_10482" x1="96.1621" y1="64" x2="151.226" y2="64" gradientUnits="userSpaceOnUse">
<stop stop-color="#FCCC54"/>
<stop offset="0.1" stop-color="#FCC44C" stop-opacity="0.81"/>
<stop offset="0.23" stop-color="#FDBC45" stop-opacity="0.59"/>
<stop offset="0.37" stop-color="#FDB53E" stop-opacity="0.41"/>
<stop offset="0.5" stop-color="#FEB038" stop-opacity="0.26"/>
<stop offset="0.63" stop-color="#FEAB34" stop-opacity="0.15"/>
<stop offset="0.75" stop-color="#FEA831" stop-opacity="0.07"/>
<stop offset="0.88" stop-color="#FEA62F" stop-opacity="0.02"/>
<stop offset="1" stop-color="#FFA62F" stop-opacity="0"/>
</linearGradient>
<clipPath id="clip0_774_10482">
<rect width="176" height="196" rx="12" fill="white"/>
</clipPath>
<clipPath id="clip1_774_10482">
<rect width="96" height="96" fill="white" transform="translate(64 16)"/>
</clipPath>
</defs>
</svg>
