<svg width="176" height="160" viewBox="0 0 176 160" fill="none" xmlns="http://www.w3.org/2000/svg">
<g clip-path="url(#clip0_10576_477)">
<rect width="176" height="160" rx="12" fill="#EDF2FE"/>
<g filter="url(#filter0_f_10576_477)">
<ellipse cx="123.875" cy="38.5007" rx="71.875" ry="71.5007" fill="#DDEBFF"/>
</g>
<path d="M131.5 48.85C131.7 48.95 131.9 49.05 132 49.15C132.5 49.45 133.2 49.85 133.8 50.15C134.4 50.55 135.1 50.85 135.8 51.15C136.8 51.65 137.6 52.05 138.5 52.15C139.4 52.35 140.1 52.35 140.9 52.25C141.7 52.15 142.4 51.75 143.2 51.25C143.9 50.75 144.7 50.05 145.4 49.25C145.9 48.65 146.4 48.05 146.9 47.55C147.3 47.05 147.8 46.55 148.2 46.05C148.6 45.55 149 45.05 149.4 44.55C149.8 44.05 150.1 43.55 150.4 43.05C150.6 42.65 150.9 42.35 151.1 42.05C151.3 41.65 151.6 41.35 151.8 40.85C152 40.45 152.3 40.05 152.6 39.65C152.8 39.25 153.1 38.75 153.5 38.35C153.9 37.85 154.1 37.25 154.4 36.75C154.6 36.25 154.8 35.75 154.9 35.25C155 34.75 155 34.35 155 33.85C154.9 33.45 154.9 32.95 154.7 32.55L154.1 31.25C153.9 30.85 153.7 30.35 153.4 30.05C152.9 29.35 152.2 28.75 151.4 28.05C150.5 27.35 149.8 26.75 149 26.25C148.3 25.75 147.5 25.15 146.9 24.65C146.2 24.15 145.6 23.75 144.9 23.35C144.2 22.95 143.6 22.45 142.9 22.05C141.8 21.25 140.6 20.55 139.2 19.85C138.1 19.35 137.1 18.65 136 18.15C135 17.65 134.2 17.35 133.3 17.15C132.4 16.95 131.7 16.95 130.9 17.15C130.1 17.35 129.4 17.65 128.6 18.15C127.9 18.65 127.1 19.35 126.4 20.15C125.9 20.75 125.4 21.35 124.9 21.85C124.4 22.35 124 22.85 123.6 23.35C123.2 23.85 122.8 24.35 122.4 24.75C122 25.25 121.7 25.65 121.4 26.15C121.2 26.55 120.9 26.85 120.7 27.15C120.5 27.55 120.2 27.85 120 28.25C119.8 28.65 119.5 29.05 119.2 29.45C118.9 29.85 118.7 30.35 118.3 30.75C117.7 31.65 117.3 32.55 117.1 33.35C116.9 34.25 116.7 35.65 117.4 37.05L118.1 38.35C118.2 38.55 118.3 38.75 118.5 39.05C118.7 39.25 118.8 39.45 119 39.75C119.2 39.95 119.4 40.15 119.7 40.45C119.9 40.65 120.2 40.85 120.4 41.15C121.3 41.85 122.2 42.45 123 43.15L115.3 53.35L108.8 61.85C108.7 62.05 108.6 62.25 108.6 62.45L108 69.25C108 69.45 108.1 69.75 108.3 69.95L109.6 70.95C109.8 71.15 110.1 71.15 110.3 71.05L116.6 69.05C116.9 68.95 117.1 68.65 117.1 68.25L116.9 66.15L119.2 65.45C119.6 65.35 119.8 64.95 119.8 64.55L119.6 61.65L121.9 61.25C122.1 61.15 122.3 61.05 122.4 60.85L131.5 48.85Z" fill="white"/>
<path d="M123.1 43.25L115.3 53.55L108.8 62.05C108.7 62.25 108.6 62.45 108.6 62.65L108 69.35C108 69.55 108.1 69.85 108.3 70.05L109.6 71.05C109.8 71.25 110.1 71.25 110.3 71.15L116.6 69.05C116.9 68.95 117.1 68.65 117.1 68.25L116.9 66.15L119.2 65.45C119.6 65.35 119.8 64.95 119.8 64.55L119.6 61.65L121.9 61.25C122.1 61.15 122.3 61.05 122.4 60.85L131.5 48.85" stroke="black" stroke-width="1.5" stroke-linecap="round" stroke-linejoin="round"/>
<path d="M114.7 66.7504C114.7 66.7504 114 64.5504 114.7 64.1504L117 63.4504C117.4 63.3504 117.6 62.9504 117.6 62.5504L117.4 59.6504L119.7 59.2504L123.9 53.6504" stroke="black" stroke-width="0.8" stroke-linecap="round" stroke-linejoin="round"/>
<path d="M131.501 48.85C131.701 48.95 131.901 49.05 132.001 49.15C132.501 49.45 133.201 49.85 133.801 50.15C134.401 50.55 135.101 50.85 135.801 51.15C136.801 51.65 137.601 52.05 138.501 52.15C139.401 52.35 140.101 52.35 140.901 52.25C141.701 52.15 142.401 51.75 143.201 51.25C143.901 50.75 144.701 50.05 145.401 49.25C145.901 48.65 146.401 48.05 146.901 47.55C147.301 47.05 147.801 46.55 148.201 46.05C148.601 45.55 149.001 45.05 149.401 44.55C149.801 44.05 150.101 43.55 150.401 43.05C150.601 42.65 150.901 42.35 151.101 42.05C151.301 41.65 151.601 41.35 151.801 40.85C152.001 40.45 152.301 40.05 152.601 39.65C152.801 39.25 153.101 38.75 153.501 38.35C153.901 37.85 154.101 37.25 154.401 36.75C154.601 36.25 154.801 35.75 154.901 35.25C155.001 34.75 155.001 34.35 155.001 33.85C154.901 33.45 154.901 32.95 154.701 32.55L154.101 31.25C153.901 30.85 153.701 30.35 153.401 30.05C152.901 29.35 152.201 28.75 151.401 28.05C150.501 27.35 149.801 26.75 149.001 26.25C148.301 25.75 147.501 25.15 146.901 24.65C146.201 24.15 145.601 23.75 144.901 23.35C144.201 22.95 143.601 22.45 142.901 22.05C141.801 21.25 140.601 20.55 139.201 19.85C138.101 19.35 137.101 18.65 136.001 18.15C135.001 17.65 134.201 17.35 133.301 17.15C132.401 16.95 131.701 16.95 130.901 17.15C130.101 17.35 129.401 17.65 128.601 18.15C127.901 18.65 127.101 19.35 126.401 20.15C125.901 20.75 125.401 21.35 124.901 21.85C124.501 22.35 124.001 22.85 123.601 23.35C123.201 23.85 122.801 24.35 122.401 24.75C122.001 25.25 121.701 25.65 121.401 26.15C121.201 26.55 120.901 26.85 120.701 27.15C120.501 27.55 120.201 27.85 120.001 28.25C119.801 28.65 119.501 29.05 119.201 29.45C118.901 29.85 118.701 30.35 118.301 30.75C117.701 31.65 117.301 32.55 117.101 33.35C116.901 34.25 116.701 35.65 117.401 37.05L118.101 38.35C118.201 38.55 118.301 38.75 118.501 39.05C118.701 39.25 118.801 39.45 119.001 39.75C119.201 39.95 119.401 40.15 119.701 40.45C119.901 40.65 120.201 40.85 120.401 41.15C121.301 41.85 122.201 42.55 123.001 43.15" stroke="black" stroke-width="1.5" stroke-linecap="round" stroke-linejoin="round"/>
<path d="M150.2 39.0498C150.1 39.2498 149.9 39.4498 149.8 39.6498C149.7 39.8498 149.6 39.9498 149.5 40.1498C149.1 40.6498 148.8 41.0498 148.5 41.5498C148.1 42.0498 147.8 42.4498 147.4 42.9498C147 43.4498 146.6 43.9498 146.2 44.4498C145.8 44.9498 145.3 45.5498 144.7 46.0498C144 46.8498 143.3 47.5498 142.6 47.9498C141.9 48.4498 141.1 48.7498 140.4 48.8498C139.7 48.9498 138.9 48.9498 138 48.7498C137.1 48.5498 136.3 48.2498 135.4 47.7498C134.7 47.3498 134.1 47.0498 133.4 46.7498C132.8 46.4498 132.2 46.0498 131.7 45.7498" stroke="black" stroke-width="0.8" stroke-linecap="round" stroke-linejoin="round"/>
<path fill-rule="evenodd" clip-rule="evenodd" d="M140.4 24.75L141.9 25.65L140.9 27.05L142.4 27.95L141.4 29.35L142.9 30.25L144.5 28.15L146.1 29.15L142.4 34.15L143.6 34.95L142.6 36.35L144.1 37.25L143.1 38.65L141.9 38.05L136.2 45.45L130.9 42.05L134.6 37.05L131.5 35.05L127.8 39.95L122.5 36.55L127.9 29.25L126.7 28.55L127.7 27.15L129.2 28.05L130.2 26.65L131.7 27.55L132.7 26.15L134.2 27.05L135.2 25.65L136.7 26.55L137.7 25.15L139.2 26.05L140.4 24.75Z" fill="url(#paint0_linear_10576_477)"/>
</g>
<defs>
<filter id="filter0_f_10576_477" x="-48" y="-133" width="343.75" height="343.001" filterUnits="userSpaceOnUse" color-interpolation-filters="sRGB">
<feFlood flood-opacity="0" result="BackgroundImageFix"/>
<feBlend mode="normal" in="SourceGraphic" in2="BackgroundImageFix" result="shape"/>
<feGaussianBlur stdDeviation="50" result="effect1_foregroundBlur_10576_477"/>
</filter>
<linearGradient id="paint0_linear_10576_477" x1="134.301" y1="26.4381" x2="134.301" y2="44.7743" gradientUnits="userSpaceOnUse">
<stop stop-color="#7AD1FF"/>
<stop offset="1" stop-color="#C5EBFF"/>
</linearGradient>
<clipPath id="clip0_10576_477">
<rect width="176" height="160" rx="12" fill="white"/>
</clipPath>
</defs>
</svg>
