<svg width="32" height="32" viewBox="0 0 32 32" fill="none" xmlns="http://www.w3.org/2000/svg">
<path d="M10.4541 11.4822H23.343C27.1279 11.4822 27.995 25.6334 23.343 25.6334H8.6548C7.35636 25.6334 6.30469 24.5817 6.30469 23.2833V10.8242C6.30469 9.76075 7.01795 8.83011 8.04494 8.55515L19.4289 5.49413C20.175 5.2932 20.9094 5.85605 20.9094 6.62923V10.8947" stroke="#99B1E6" stroke-width="1.75" stroke-linecap="round" stroke-linejoin="round"/>
<path d="M21.3868 20.0255C22.198 20.0255 22.8556 19.3679 22.8556 18.5567C22.8556 17.7455 22.198 17.0879 21.3868 17.0879C20.5756 17.0879 19.918 17.7455 19.918 18.5567C19.918 19.3679 20.5756 20.0255 21.3868 20.0255Z" fill="#99B1E6"/>
</svg>
