<svg width="176" height="197" viewBox="0 0 176 197" fill="none" xmlns="http://www.w3.org/2000/svg">
<g clip-path="url(#clip0_10501_353)">
<rect y="0.5" width="176" height="196" rx="12" fill="#EDF2FE"/>
<g filter="url(#filter0_f_10501_353)">
<ellipse cx="130" cy="41.8876" rx="96" ry="91.3876" fill="#DDEBFF"/>
</g>
<g clip-path="url(#clip1_10501_353)">
<path d="M105.196 48.1444C108.927 48.9454 112.454 48.9349 115.895 48.3658C117.571 49.0999 119.38 49.054 120.233 48.5663C132.721 49.4435 132.774 40.7891 125.548 41.3833C125.225 36.712 122.309 35.0996 118.231 35.1904C112.404 24.6562 98.5999 27.3506 96.5895 37.0378C92.8383 35.204 90.7412 38.1929 90.218 41.7311C80.0838 41.7311 85.8339 51.8643 95.3363 48.0044C97.6996 49.8163 101.44 49.8518 105.192 48.1485H105.195V48.1454L105.196 48.1444ZM96.837 71.8184C96.8067 72.75 95.6371 73.5677 94.4935 73.4476C85.4371 73.8193 76.3691 73.8402 67.3095 73.5092C62.7123 73.317 63.0382 68.6353 67.4578 68.7115C67.7565 64.6323 72.9405 62.3243 76.1571 64.4579C80.1506 58.3914 87.9476 60.3641 89.0588 66.7649C92.0112 66.2114 94.48 67.9857 94.6251 70.1485C95.7635 70.0577 96.8663 70.8869 96.837 71.8195V71.8184Z" fill="url(#paint0_linear_10501_353)"/>
<path d="M111.065 25.953C111.065 24.4021 112.184 23.0769 113.712 22.8158L148.314 17.6463C149.272 17.4918 150.388 17.4145 151.327 17.6463C152.979 18.0547 154.358 18.4505 155.056 18.8181C156.388 19.5115 156.839 20.843 156.839 22.8847V99.2194C156.839 102.93 155.788 102.861 154.11 103.744L152.146 104.474C151.088 104.866 149.954 105.039 148.823 104.978L146.203 104.834L114.062 103.042C112.377 102.943 111.065 101.55 111.065 99.8648V25.953Z" fill="white"/>
<path d="M111.065 25.953C111.065 24.4021 112.184 23.0769 113.712 22.8158L148.314 17.6463C149.272 17.4918 150.388 17.4145 151.327 17.6463C152.979 18.0547 154.358 18.4505 155.056 18.8181C156.388 19.5115 156.839 20.843 156.839 22.8847V99.2194C156.839 102.93 155.788 102.861 154.11 103.744L152.146 104.474C151.088 104.866 149.954 105.039 148.823 104.978L146.203 104.834L114.062 103.042C112.377 102.943 111.065 101.55 111.065 99.8648V25.953Z" stroke="black" stroke-width="1.3" stroke-linecap="round" stroke-linejoin="round"/>
<path d="M120.629 99.7445L139.139 100.55M124.437 99.9074V81.76L135.7 81.6942V97.8616M151.217 20.021C151.288 20.3176 151.327 20.6278 151.327 20.9525V101.103C151.327 101.744 151.166 102.392 150.825 102.935M125.56 48.9167L116.975 49.6498C115.611 49.7647 114.512 48.6389 114.512 47.1309V37.8593C114.512 36.3513 115.61 34.9968 116.975 34.8328L125.56 33.8C126.986 33.6297 128.154 34.7513 128.154 36.3064V45.8819C128.154 47.439 126.988 48.7997 125.56 48.9209V48.9178V48.9167ZM144.647 47.2865L135.294 48.0812C133.811 48.2055 132.615 47.0338 132.615 45.461V35.7873C132.615 34.2146 133.809 32.7974 135.294 32.6167L144.647 31.4878C146.207 31.3009 147.476 32.4663 147.476 34.0924V44.0971C147.476 45.7263 146.207 47.1487 144.647 47.2802V47.2876V47.2865ZM125.56 69.6854L116.975 69.9998C115.611 70.052 114.512 68.8677 114.512 67.3597V58.0881C114.512 56.58 115.61 55.2819 116.975 55.1806L125.56 54.5624C126.986 54.458 128.154 55.6381 128.154 57.1931V66.7686C128.154 68.3257 126.988 69.6311 125.56 69.6833V69.6865V69.6854ZM144.647 68.9815L135.294 69.3283C133.811 69.3836 132.615 68.1513 132.615 66.5806V56.9069C132.615 55.3342 133.809 53.9723 135.294 53.8679L144.647 53.1933C146.207 53.0784 147.476 54.3086 147.476 55.9315V65.9363C147.476 67.5654 146.207 68.9262 144.647 68.9857V68.9826V68.9815Z" stroke="black" stroke-width="0.8" stroke-linecap="round" stroke-linejoin="round"/>
<path d="M131.227 24.1757C131.259 23.688 130.925 23.2661 130.481 23.2368C130.035 23.2065 129.65 23.5804 129.616 24.0671C129.584 24.5548 129.918 24.9767 130.362 25.0059C130.808 25.0362 131.193 24.6623 131.227 24.1757Z" fill="black"/>
<path d="M124.392 36.1019L117.608 36.8601C116.976 36.9322 116.496 37.4658 116.496 38.0997V46.1474M143.605 33.7584L137.282 34.4592C136.919 34.4989 136.291 34.5709 135.731 34.6367C135.103 34.7119 134.629 35.2424 134.625 35.8732L134.602 45.6534C134.602 45.9552 134.704 46.2299 134.876 46.4492M124.802 56.526L117.564 56.9855C116.969 57.0252 116.504 57.5181 116.504 58.1176V67.7265M134.83 67.7463C134.689 67.5552 134.607 67.3192 134.607 67.0623V57.0952C134.607 56.4341 135.117 55.891 135.774 55.8493L143.795 55.2926M139.291 55.6811V65.7955M139.291 34.3286V42.769M121.173 56.8372V65.7976M121.065 36.6136L121.117 43.3266M139.213 59.9692L134.633 60.2292M118.034 61.0386L121.127 60.8642M136.765 38.5279L139.249 38.2668M118.021 40.3565L121.07 40.0391M154.607 44.5015V34.5511C154.607 34.0665 154.261 33.6738 153.832 33.6738M119.084 25.9363L115.268 26.5034M147.156 21.782L142.801 22.4253M127.146 93.2782C126.793 93.2782 126.498 92.99 126.498 92.6297V89.9907C126.498 89.6387 126.786 89.3421 127.146 89.3421" stroke="black" stroke-width="0.5" stroke-linecap="round" stroke-linejoin="round"/>
</g>
</g>
<defs>
<filter id="filter0_f_10501_353" x="-66" y="-149.5" width="392" height="382.775" filterUnits="userSpaceOnUse" color-interpolation-filters="sRGB">
<feFlood flood-opacity="0" result="BackgroundImageFix"/>
<feBlend mode="normal" in="SourceGraphic" in2="BackgroundImageFix" result="shape"/>
<feGaussianBlur stdDeviation="50" result="effect1_foregroundBlur_10501_353"/>
</filter>
<linearGradient id="paint0_linear_10501_353" x1="77.144" y1="53.8245" x2="135.309" y2="46.7512" gradientUnits="userSpaceOnUse">
<stop stop-color="#B4D3FF"/>
<stop offset="1" stop-color="#B4D3FF" stop-opacity="0"/>
</linearGradient>
<clipPath id="clip0_10501_353">
<rect y="0.5" width="176" height="196" rx="12" fill="white"/>
</clipPath>
<clipPath id="clip1_10501_353">
<rect width="96" height="96" fill="white" transform="translate(64 16.5)"/>
</clipPath>
</defs>
</svg>
