<svg width="28" height="28" viewBox="0 0 28 28" fill="none" xmlns="http://www.w3.org/2000/svg">
<path d="M7.05866 19.0487L7.06014 19.0501C7.71356 19.6975 8.80145 20.1382 9.97197 20.4242C11.1738 20.7179 12.5845 20.8772 13.9974 20.882L14.0026 20.882C15.4146 20.8772 16.8252 20.7204 18.0273 20.4279C19.1974 20.1432 20.2868 19.7025 20.9413 19.0487C21.8536 18.1422 21.8713 16.7328 21.5982 15.4393C21.3141 14.0936 20.6612 12.594 19.8569 11.2065C19.0503 9.8153 18.0654 8.4918 17.0822 7.504C16.591 7.0105 16.0847 6.58507 15.5865 6.27773C15.0992 5.97717 14.5554 5.74964 14.0049 5.74602V5.74595L13.9951 5.74602C13.4446 5.74964 12.9009 5.97721 12.4138 6.27783C11.9157 6.58522 11.4097 7.01069 10.9189 7.50421C9.93647 8.49205 8.95241 9.81556 8.14653 11.2067C7.34279 12.5942 6.69034 14.0936 6.40579 15.4391C6.13227 16.7324 6.14858 18.142 7.05866 19.0487ZM14 27.25C6.68621 27.25 0.75 21.3138 0.75 14C0.75 6.68621 6.68621 0.75 14 0.75C21.3138 0.75 27.25 6.68621 27.25 14C27.25 21.3138 21.3138 27.25 14 27.25Z" stroke="white" stroke-width="1.5"/>
</svg>
