<svg width="152" height="132" viewBox="0 0 152 132" fill="none" xmlns="http://www.w3.org/2000/svg">
<path d="M60.1161 70.2677L52.2973 78.3623C52.2973 78.3623 51.9034 78.6873 51.1845 78.3623C50.4459 78.0374 50.4459 77.4268 50.4459 77.4268C50.4459 77.4268 51.6375 73.3303 52.9078 70.0314C53.7645 67.8058 54.2963 65.9545 54.6016 65.8363C54.8379 65.7477 55.0841 65.7083 55.3303 65.7083C56.059 65.6886 56.6105 65.728 56.8862 65.0584C57.2998 64.0244 57.9596 61.8974 58.5012 59.9771C59.3382 57.0032 59.1806 53.0149 58.2254 50.0312C56.0294 43.3644 51.736 40.1739 51.736 40.1739C51.736 40.1739 51.1648 40.6859 50.2293 40.5481C49.2938 40.4102 48.4764 39.78 48.4764 39.78C48.4764 39.78 47.1076 40.9518 44.3897 42.8031C41.6817 44.6446 39.1214 45.0976 39.1214 45.0976C39.1214 45.0976 37.1125 44.6545 34.2764 42.8819C31.9032 41.3949 28.9588 38.8445 26.1326 36.1462C24.7539 34.8365 19.2492 29.2038 17.0335 22.8128C16.0684 20.0161 15.0739 16.8649 15.0049 14.2947C14.9163 10.7299 16.0488 8.09082 16.4919 7.25379C18.294 3.82687 22.0852 0.724918 26.1326 1.08927C28.0331 1.25668 29.9731 1.30592 31.7653 2.05433C35.9111 3.79733 39.2592 7.24394 39.2592 7.24394C39.2592 7.24394 41.79 3.54129 48.8113 1.44378C52.2382 0.4098 56.059 1.25668 58.5996 3.21633C61.2683 5.2646 62.5879 8.45518 62.5879 8.45518C62.5879 8.45518 65.4732 14.1372 61.7311 22.4386C57.9891 30.74 54.0698 34.1669 54.0698 34.1669C54.0698 34.1669 54.7985 35.0335 54.8281 36.4023C54.8576 37.7809 54.6311 37.7514 54.6311 37.7514C54.6311 37.7514 56.2756 38.7854 58.2944 41.6116C59.5647 43.394 61.1403 45.9839 62.1053 49.3123C64.5967 57.9091 60.4707 66.7423 60.4707 66.7423L60.2934 67.54C60.6676 67.9831 61.544 68.7216 61.16 69.1648L60.1161 70.2677Z" fill="white"/>
<path d="M100.135 3.88398C98.8746 3.98246 96.6688 5.69591 96.6688 5.69591C96.6688 5.69591 95.2409 9.01451 94.5221 11.3385C93.4684 13.633 91.8435 14.8737 89.8248 15.3957C86.6145 16.1835 83.2664 16.2721 82.4392 16.9811C79.869 18.4582 78.9828 20.7724 79.7115 23.8842C81.1492 30.0684 82.2226 35.711 82.9808 40.8415C83.9262 50.1671 83.1482 59.4926 80.9424 68.828C78.8252 76.578 76.2944 84.6036 78.9926 88.9168C80.6273 92.4324 84.7238 94.0867 92.2276 94.2738C92.1882 96.0858 93.3699 97.1395 95.0046 98.4393C94.3448 104.446 91.4398 109.606 87.1562 114.727C83.8868 118.223 79.1797 121.187 75.7429 122.93C72.3062 124.673 67.3332 125.549 62.9019 126.16C62.9019 126.16 56.1957 127.036 48.5443 123.491C40.9026 119.946 38.5885 112.492 38.5885 112.492C36.9538 107.381 37.2591 102.684 39.8194 96.8736L41.4048 96.6274L50.2085 85.2831C49.4896 82.3289 47.7466 81.0192 44.9105 81.4229L36.7962 92.3634L36.5894 94.52C33.6057 100.133 32.7588 107.184 34.7578 113.398C37.1901 120.97 43.7387 127.391 54.5611 129.547C60.9619 130.286 66.5159 130.158 72.3062 128.523C76.9837 127.204 83.6898 123.718 88.9779 118.489C95.0243 112.954 98.0573 105.638 99.0716 98.3507C100.746 97.3659 101.849 96.2236 101.494 94.6283L120.598 94.2837C127.531 94.2246 133.282 93.1118 135.684 89.0547C136.896 85.805 137.181 82.3683 136.334 78.6853C131.814 62.3976 130.643 53.6826 131.657 42.1414C132.198 36.7056 133.439 30.935 135.35 22.801C135.31 18.6749 133.38 16.3804 129.303 16.1441C123.395 15.8486 120.027 13.4853 119.387 8.88649C119.17 7.14349 118.195 5.42018 117.26 4.7604C116.334 4.10062 115.162 4.08093 113.705 3.71657C109.254 3.04695 104.734 3.07649 100.135 3.83474L100.106 3.85444L100.125 3.87413L100.135 3.88398Z" fill="white"/>
<path d="M59.6917 6.73913C54.5218 3.75535 46.8014 5.48851 41.4148 11.4659C36.0381 5.48851 28.3078 3.75535 23.1281 6.73913C15.4963 11.1409 14.9251 22.3868 22.7046 33.5735C30.4841 44.7602 39.4847 49.3097 41.3951 49.3097C43.3055 49.3097 52.3159 44.7503 60.0954 33.5735C67.8749 22.3868 67.3038 11.1508 59.6818 6.73913H59.6917Z" fill="url(#paint0_linear_201_21701)"/>
<path d="M87.1942 72.795C88.4941 67.8122 89.853 62.0121 90.3749 52.913C91.0347 41.2733 89.3016 33.2772 87.6078 25.5764V25.537C87.2041 23.6365 88.5532 21.8147 90.4636 21.7162C91.9111 21.6375 93.6246 21.5882 95.5055 21.5488H108.297" stroke="black" stroke-width="0.8" stroke-linecap="round" stroke-linejoin="round"/>
<path d="M125.067 60.4001C125.816 66.1412 126.909 70.3264 127.903 74.1275C128.465 76.2546 128.996 78.2733 129.44 80.4594C130.227 84.3787 127.756 86.752 124.486 86.9588C121.857 87.1163 119.228 87.2542 116.648 87.3723H116.49C115.909 87.4117 112.502 87.4511 107.381 87.4511C102.261 87.4511 98.8435 87.4216 98.233 87.3822H98.105C95.5249 87.2739 92.8957 87.1262 90.2664 86.9686C87.0069 86.7618 84.5155 84.3984 85.3131 80.4693C85.3525 80.2625 85.3919 80.0557 85.4313 79.8686" stroke="black" stroke-width="0.8" stroke-linecap="round" stroke-linejoin="round"/>
<path d="M119.956 21.5797C121.571 21.6191 123.029 21.6683 124.299 21.7373C126.209 21.8259 127.578 23.6575 127.155 25.5581V25.5975C126.337 29.3001 125.52 33.0619 124.959 37.2569" stroke="black" stroke-width="0.8" stroke-linecap="round" stroke-linejoin="round"/>
<path d="M108.12 7.39939C106.859 7.11381 105.441 7.75389 104.841 8.8962C104.24 10.0385 104.516 11.5846 105.471 12.4511C106.426 13.3177 107.982 13.4359 109.065 12.7269C109.794 12.2542 110.296 11.3975 110.217 10.5407" stroke="black" stroke-width="0.8" stroke-linecap="round" stroke-linejoin="round"/>
<path d="M45.5502 83.0879C45.6388 83.4818 45.9145 84.1613 46.7417 84.6438C47.5295 85.0968 48.1696 85.146 48.534 85.1066" stroke="black" stroke-width="0.8" stroke-linecap="round" stroke-linejoin="round"/>
<path d="M101.493 94.6352C101.562 95.4132 101.572 96.1813 101.04 96.8214C100.43 97.5599 99.1199 98.0228 99.0706 98.3576L99.0017 98.8598C97.7609 107.142 93.2212 115.118 86.5545 120.731C80.193 126.088 71.9113 129.387 63.216 130.027C62.3987 130.086 61.5715 130.116 60.7443 130.116C48.0509 130.116 35.2197 122.937 33.713 108.333C33.2009 103.331 34.4516 98.7515 36.5983 94.5072L36.8051 92.3506L44.9194 81.4199C44.9194 81.4199 46.5049 80.6518 48.563 82.2274C50.1287 83.4288 50.2469 84.6794 50.2272 85.2112C50.2272 85.3688 50.1583 85.5165 50.0598 85.6248L41.4137 96.5949L39.848 96.7918L39.8283 96.8411C38.1444 100.357 37.2187 104.03 37.6225 107.969C38.9617 121.017 51.3597 126.984 62.9107 126.127C70.7789 125.546 78.2728 122.572 84.004 117.747C89.8534 112.823 93.8613 105.891 95.0332 98.6727C95.1612 97.6978 93.1818 97.0675 92.7387 95.9252C92.3054 94.7928 92.5221 94.2709 92.5221 94.2709L89.8337 94.0444C89.2921 94.0148 88.7603 93.9656 88.2581 93.9065C77.9577 92.6854 76.8547 86.2058 78.3319 79.0959C79.9862 71.149 82.5072 65.9003 83.2556 53.0986C83.9942 40.3068 81.4929 32.6848 79.5431 23.0836C78.8242 19.5483 81.6209 16.2494 85.2349 16.1706C88.6619 15.826 90.6609 15.2745 91.9903 14.4276C93.0735 13.7482 93.7136 12.852 94.3241 11.7097C95.171 10.144 95.4172 8.22374 96.0376 6.70723C96.786 4.71805 99.2971 3.90071 101.454 3.56589C102.872 3.36894 104.762 3.23108 107.362 3.23108C113.3 3.23108 115.585 3.93025 116.796 4.5014C119.238 5.63386 119.022 9.1494 120.4 11.6999C121.779 14.2602 123.295 15.5306 129.499 16.1608C133.113 16.2494 135.9 19.5385 135.181 23.0737C133.231 32.675 130.72 40.2969 131.469 53.0888C132.217 65.8806 134.738 71.1392 136.393 79.0861C137.939 86.5308 136.658 93.3058 124.901 94.0247C122.389 94.1724 119.691 94.3103 116.924 94.4383C115.378 94.5269 97.8003 94.4383 97.8003 94.4383" stroke="black" stroke-width="1.3" stroke-linecap="round" stroke-linejoin="round"/>
<path d="M54.0596 34.3608C55.4678 32.7951 56.6101 31.318 57.9691 29.3485C65.7584 18.1618 65.1971 6.9258 57.5555 2.51413C53.0453 -0.0855977 46.5952 0.899149 41.4647 5.15325C40.608 5.86227 40.0171 6.42358 39.2884 7.25076C33.9019 1.27335 26.1618 -0.459801 21.0017 2.51413C15.0243 5.97059 13.3798 13.6418 16.718 22.1795C17.6535 24.5921 18.7269 26.601 20.1745 28.7379C20.3124 28.9349 20.4502 29.1417 20.5979 29.3386C28.3774 40.5155 37.378 45.0749 39.2884 45.0749C40.4898 45.0749 43.8478 43.8242 48.614 39.6982C49.3722 40.1708 50.032 40.8503 51.7258 40.1708C56.3442 44.4151 58.6781 49.1123 58.9538 54.3906C59.1311 57.7879 58.4417 61.3232 56.8858 65.0455C56.423 66.0303 55.97 65.9219 55.4383 65.7545C54.8671 65.5871 54.2664 65.8826 54.0892 66.4537C53.1241 69.5655 51.4402 74.2529 50.4554 77.345C50.288 77.9358 51.8538 78.7729 52.2969 78.3593L60.3423 70.0283L61.0021 69.3784C61.4058 68.9944 61.4157 68.3543 61.0218 67.9505L60.5983 67.4975C60.4014 67.2514 60.3718 67.0544 60.49 66.7294C62.3315 62.3966 63.1291 58.2508 62.9223 54.2035C62.5974 47.9503 59.781 42.3077 54.552 37.3938C55.1133 36.7242 54.8376 34.9024 54.0793 34.3411" stroke="black" stroke-width="1.3" stroke-linecap="round" stroke-linejoin="round"/>
<defs>
<linearGradient id="paint0_linear_201_21701" x1="80.3911" y1="43.9035" x2="-1.59892" y2="0.948829" gradientUnits="userSpaceOnUse">
<stop stop-color="#FCA9C7" stop-opacity="0"/>
<stop offset="0.13" stop-color="#FCA9C7" stop-opacity="0.26"/>
<stop offset="0.31" stop-color="#FCA9C7" stop-opacity="0.57"/>
<stop offset="0.45" stop-color="#FCA9C7" stop-opacity="0.8"/>
<stop offset="0.56" stop-color="#FCA9C7" stop-opacity="0.95"/>
<stop offset="0.62" stop-color="#FCA9C7"/>
</linearGradient>
</defs>
</svg>
