<svg width="32" height="32" viewBox="0 0 32 32" fill="none" xmlns="http://www.w3.org/2000/svg">
<path d="M10.4633 18.0751L7.1001 14.7119C6.32379 13.9356 6.5568 12.6546 7.53125 12.1462C10.5206 10.5823 12.9642 8.14125 14.5293 5.15313C15.0389 4.17994 16.3187 3.94692 17.095 4.72323L20.4594 8.08767C21.237 8.86523 21.0027 10.145 20.0283 10.6546C17.0389 12.2172 14.5941 14.6583 13.0277 17.6464C12.5193 18.6184 11.2396 18.8514 10.4633 18.0751Z" stroke="#99B1E6" stroke-width="1.75" stroke-miterlimit="10" stroke-linecap="round" stroke-linejoin="round"/>
<path d="M15.3546 26.4775H5.23633L6.52478 22.7891H14.0661L15.3546 26.4775Z" stroke="#99B1E6" stroke-width="1.75" stroke-miterlimit="10" stroke-linecap="round" stroke-linejoin="round"/>
<path d="M17.0354 12.6621L26.2677 21.3399C26.973 22.0452 26.973 23.1903 26.2677 23.8956C25.5624 24.6009 24.4172 24.6009 23.7119 23.8956L15.0342 14.6621" stroke="#99B1E6" stroke-width="1.75" stroke-miterlimit="10" stroke-linecap="round" stroke-linejoin="round"/>
</svg>
