<svg width="32" height="32" viewBox="0 0 32 32" fill="none" xmlns="http://www.w3.org/2000/svg">
<path d="M7.10742 5.20312L7.10798 26.7945H22.3705C23.7658 26.7945 24.8975 25.6628 24.8975 24.2675L24.8958 7.75346C24.8958 6.35929 23.7664 5.22879 22.3723 5.22646L7.10742 5.20312Z" stroke="#99B1E6" stroke-width="1.75" stroke-miterlimit="10" stroke-linecap="round" stroke-linejoin="round"/>
<path d="M20.7525 21.1885L20.3631 19.3063C20.1216 18.1404 18.0666 17.5567 16.0068 17.5566C13.947 17.5567 11.8868 18.1404 11.6453 19.3063L11.2559 21.1885" stroke="#99B1E6" stroke-width="1.6" stroke-miterlimit="10" stroke-linecap="round" stroke-linejoin="round"/>
<path d="M16.0009 9.87695C14.8294 9.87695 13.8809 10.8266 13.8809 11.997L13.8809 12.6475C13.8809 13.819 14.8305 14.7676 16.0009 14.7676C17.1724 14.7676 18.121 13.8179 18.121 12.6475L18.1209 11.997C18.1209 10.8255 17.1713 9.87695 16.0009 9.87695Z" stroke="#99B1E6" stroke-width="1.6" stroke-miterlimit="10" stroke-linecap="round" stroke-linejoin="round"/>
</svg>
