<svg width="32" height="32" viewBox="0 0 32 32" fill="none" xmlns="http://www.w3.org/2000/svg">
<path d="M13.8326 19.4362H10.7784C7.81681 19.4362 5.23843 17.5847 4.25254 14.8768C3.53625 12.9103 3.76489 10.7548 4.8076 8.9892L10.978 12.5667C12.4753 13.4349 14.3506 12.3539 14.3506 10.624V9.00373H11.1247V8.19361C11.1247 5.8703 14.0586 4.43772 15.9986 6.20466C17.94 4.43772 20.8747 5.8703 20.8747 8.19361V9.00373H17.6487V10.624C17.6487 12.3539 19.524 13.4349 21.0213 12.5667L27.1917 8.99052C28.2345 10.7561 28.4631 12.9116 27.7468 14.8781C26.7609 17.586 24.1825 19.4375 21.2209 19.4375H18.1668M13.8314 19.4346L10.9028 24.927C12.3327 26.279 14.1657 26.9563 15.9987 26.9563M18.1653 19.4346L21.0939 24.927M16.0007 26.9563C17.8337 26.9563 19.6667 26.2796 21.0966 24.9277" stroke="#99B1E6" stroke-width="1.75" stroke-miterlimit="10" stroke-linecap="round" stroke-linejoin="round"/>
</svg>
