<svg width="32" height="32" viewBox="0 0 32 32" fill="none" xmlns="http://www.w3.org/2000/svg">
<path d="M11.4216 6.33331C14.819 6.09072 17.1929 6.09072 20.5903 6.33331C21.8317 6.42206 22.9263 7.18651 23.4789 8.30124L25.5747 12.5365C26.3829 14.1683 26.803 15.9647 26.803 17.7859V24.7843C26.803 25.4375 26.2728 25.9676 25.6196 25.9676H23.6556C23.0024 25.9676 22.4723 25.4375 22.4723 24.7843V22.8435L9.50765 22.8435V24.7843C9.50765 25.4375 8.9775 25.9676 8.32429 25.9676H6.39234C5.73913 25.9676 5.20898 25.4375 5.20898 24.7843V17.7859C5.20898 15.9647 5.62908 14.1683 6.43731 12.5365L8.53304 8.30124C9.08567 7.18651 10.1803 6.42206 11.4216 6.33331Z" stroke="#99B1E6" stroke-width="1.75" stroke-miterlimit="10" stroke-linecap="round" stroke-linejoin="round"/>
<path d="M28.5198 13.7852C20.2233 14.1875 11.8131 14.1875 3.5166 13.7852" stroke="#99B1E6" stroke-width="1.75" stroke-miterlimit="10" stroke-linecap="round" stroke-linejoin="round"/>
<path fill-rule="evenodd" clip-rule="evenodd" d="M11.1957 18.445C11.1957 19.2615 10.533 19.9242 9.7165 19.9242C8.89999 19.9242 8.2373 19.2615 8.2373 18.445C8.2373 17.6285 8.89999 16.9658 9.7165 16.9658C10.533 16.9658 11.1957 17.6285 11.1957 18.445ZM23.7738 18.445C23.7738 19.2615 23.1111 19.9242 22.2946 19.9242C21.4781 19.9242 20.8154 19.2615 20.8154 18.445C20.8154 17.6285 21.4781 16.9658 22.2946 16.9658C23.1111 16.9658 23.7738 17.6285 23.7738 18.445Z" fill="#99B1E6"/>
</svg>
